<?xml version="1.0" encoding="utf-8"?>
<!-- Generator: Adobe Illustrator 23.1.0, SVG Export Plug-In . SVG Version: 6.00 Build 0)  -->
<svg version="1.1" id="Calque_1" xmlns="http://www.w3.org/2000/svg" xmlns:xlink="http://www.w3.org/1999/xlink" x="0px" y="0px"
	 viewBox="0 0 371.17 141.72" style="enable-background:new 0 0 371.17 141.72;" xml:space="preserve">
<style type="text/css">
	.st0{clip-path:url(#SVGID_2_);}
	.st1{fill:#FFFFFF;}
</style>
<g>
	<g>
		<g>
			<path d="M148.31,70.51c-16-0.91-20.35-6.23-22.69-8.98c0,0-0.63-0.52-1.7-1.71s-1.12-2.65-1.12-2.65
				c0.27-2.82,0.53-5.79,0.45-8.37c-0.02-0.74-0.41-1.9-1.02-2.34c-2.67-1.92-5.79-2.54-9.01-2.27c-0.84,0.07-1.83,0.85-2.38,1.58
				c-2.08,2.77-3.03,6.03-3.5,9.42c-0.32,2.32-0.58,4.66-0.82,7c-0.06,0.64-0.22,1.2-0.9,1.13c-0.45-0.04-1.01-0.36-1.26-0.73
				c-0.66-0.99-1.13-2.12-1.78-3.12c-0.53-0.82-1.13-1.65-1.87-2.27c-1.99-1.64-4.45-1.89-6.88-1.79c0,0-1.85,0.33-2.35,2.81
				c-0.4,1.98-1.25,3.86-2.09,5.69c-0.57,1.24-1.53,2.3-2.41,3.6c-0.32-0.46-0.5-0.63-0.58-0.84c-0.42-1.16-0.82-2.33-1.23-3.49
				c-1.39-3.92-3.52-7.56-3.98-11.82c-0.2-1.86-1.05-3.55-3.21-3.95c-1.12-0.21-2.28-0.24-3.41-0.41c-0.88-0.14-1.49,0.1-1.79,0.96
				c-1.01,2.88-1.92,5.8-3.07,8.61c-1.52,3.72-3.14,7.4-4.91,11c-0.94,1.92-2.22,3.68-3.46,5.43c-0.78,1.1-1.37,1-1.72-0.26
				c-0.53-1.9-0.94-3.84-1.28-5.78c-0.6-3.42-1.12-6.86-0.66-10.36c0.13-0.97-0.82-2.68-1.7-3.03c-1.95-0.78-3.98-1-5.95-0.64
				c-0.2,0.67-0.3,1.27-0.55,1.79c-1.77,3.62-3.49,7.26-5.41,10.8c-1.06,1.95-2.29,3.87-4.32,5.02c-2.03,1.15-3.98,1.59-5.04,0.2
				c-0.93-1.22-1.99-2.41-2.62-3.78c-1.58-3.44-2.28-7.07-2.19-10.92c0.1-4.1,0.92-8.06,1.75-12.02c0.87-4.14,2.83-7.82,5.71-10.92
				c2.14-2.31,4.46-4.48,7.66-5.28c0.63-0.16,1.52-0.14,2.02,0.2c0.86,0.59,1.82,1.36,2.19,2.28c0.98,2.46,1.73,5.02,2.44,7.57
				c0.33,1.19,0.66,2.2,1.82,2.9c1.98,1.21,3.54,0.6,3.62-1.72c0.05-1.53-0.12-3.13-0.57-4.58c-0.55-1.77-1.34-3.51-2.32-5.08
				c-2.01-3.24-5.28-4.6-8.83-5.45c-3.75-0.89-7.13,0.04-10.16,2.25c-3.31,2.4-5.57,5.72-7.41,9.29c-0.98,1.89-1.67,3.97-2.26,6.02
				c-1.17,4.07-1.85,8.22-1.92,12.47c-0.08,5.25,1.22,10.12,3.9,14.6c2.24,3.75,5.61,5.85,9.83,7.05
				c4.78,1.36,12.25-2.09,13.41-7.55c0.04-0.2,0.19-0.38,0.37-0.74c0.29,1,0.49,1.81,0.75,2.6c1.06,3.22,2.27,6.39,5.49,8.08
				c1.75,0.92,3.49,1.99,5.75,1.01c1.58-0.69,2.93-1.49,4.06-2.8c2.5-2.89,4.87-5.85,6.22-9.5c1.02-2.78,2.14-5.53,3.3-8.52
				c0.57,1.55,1.14,3.02,1.65,4.5c0.8,2.34,1.35,4.83,3.09,6.69c1.04,1.12,2.28,2.2,3.65,2.83c1.22,0.55,2.51,1.05,4.19,0.48
				c2.18-0.74,3.46-2.18,4.38-3.93c1.01-1.9,1.53-4.06,2.29-6.1c0.2-0.53,0.45-1.04,0.63-1.43c1.75,1.71,3.29,3.43,5.07,4.85
				c1.04,0.83,2.43,1.28,3.73,1.71c1.6,0.53,3.18,0.85,4.26,2.45c1.19,1.76,1.58,1.95,3.56,2.67c1.43,0.52,2.84,0,3.61-0.91
				c1.83-2.16,3.05-4.21,4.69-6.54c0.42-0.5,1.79-0.2,3.26,1.27c0.8,0.8,4.32,6.76,20.74,6.88c0,0,4.19,0.15,4.28-2.62
				C149.56,70.15,148.83,70.49,148.31,70.51z M113.01,65.09c-1.25-3.52,1.79-13.44,4.37-14.49
				C117.99,54.04,115.1,63.81,113.01,65.09z"/>
		</g>
		<g>
			<defs>
				<path id="SVGID_1_" d="M174.75,23.25c0,0,1.52-0.68,2.52,2.68s2.2,21.1,4.23,23.68s3.35,3.84,5.24,0.73
					c1.89-3.11,16.24-23.79,23.91-22.12c0.85,0.33,2.56,1.53-3.4,7.34c-5.96,5.81-19.69,19.16-17.18,20.1
					c2.51,0.94,32.92,9.82,42.31,17.37c1.69,1.47,1.98,6.47-4.38,4.26c-6.36-2.21-25.55-17.02-38.83-15.2
					c-2.51,0.28-0.57,11.81,6.94,19.77c2.75,2.84,3.56,7.74,0.67,7.53s-14.91-16.89-21.23-45.59
					C172.88,28.4,171.15,24.09,174.75,23.25z"/>
			</defs>
			<clipPath id="SVGID_2_">
				<use xlink:href="#SVGID_1_"  style="overflow:visible;"/>
			</clipPath>
			<g class="st0">
				<path d="M171.91,33.54c-0.09-1.11-0.21-2.31-0.37-3.59c-0.16-1.28-0.15-2.49,0.03-3.62c0.18-1.13,0.57-2.09,1.19-2.87
					c0.62-0.78,1.69-1.23,3.21-1.35c1.23,1.44,2.09,3.27,2.59,5.5s0.9,4.58,1.21,7.06c0.31,2.48,0.63,4.94,0.97,7.39
					c0.34,2.45,0.99,4.57,1.95,6.38c0.08,0.23,0.38,0.54,0.91,0.94c0.53,0.4,0.89,0.65,1.07,0.76c1.64-1.66,3.11-3.36,4.42-5.11
					s2.6-3.45,3.89-5.11c1.28-1.66,2.57-3.25,3.87-4.76c1.3-1.51,2.74-2.86,4.32-4.04c1.59-1.18,3.39-2.16,5.42-2.94
					c2.03-0.78,4.36-1.27,7-1.47c0.11,1.4-0.28,2.85-1.17,4.33c-0.89,1.48-2.03,3-3.44,4.55s-2.96,3.14-4.66,4.78
					c-1.7,1.63-3.34,3.29-4.91,4.97c-1.58,1.68-2.98,3.35-4.2,5.01s-2.07,3.3-2.53,4.92c1.01,0.16,2.71,0.6,5.09,1.33
					c2.38,0.73,5.1,1.64,8.16,2.72c3.06,1.09,6.23,2.27,9.5,3.55c3.28,1.28,6.29,2.56,9.04,3.85c2.75,1.29,5.01,2.53,6.78,3.71
					c1.77,1.19,2.69,2.19,2.75,3.01c0.01,0.18,0.04,0.54,0.09,1.1c0.04,0.56,0.04,1.13,0,1.72c-0.04,0.59-0.19,1.12-0.45,1.58
					s-0.71,0.72-1.35,0.77c-2.46,0.13-4.81-0.14-7.04-0.82c-2.23-0.68-4.42-1.57-6.57-2.67c-2.15-1.1-4.28-2.26-6.41-3.48
					s-4.29-2.38-6.5-3.47c-2.2-1.09-4.46-1.95-6.78-2.57c-2.31-0.62-4.79-0.88-7.44-0.79c-0.77,1.47-1.04,2.86-0.82,4.17
					c0.22,1.31,0.72,2.59,1.49,3.86s1.68,2.55,2.73,3.85c1.04,1.3,1.97,2.67,2.79,4.11s1.41,2.97,1.77,4.59s0.23,3.37-0.39,5.24
					c-0.1,0.18-0.31,0.39-0.61,0.62s-0.64,0.48-1,0.74c-0.36,0.26-0.74,0.47-1.14,0.62c-0.4,0.15-0.66,0.23-0.78,0.24
					c-0.76,0.06-1.65-0.61-2.67-2s-2.14-3.31-3.36-5.74s-2.5-5.24-3.83-8.4s-2.65-6.45-3.94-9.85c-1.29-3.4-2.5-6.84-3.63-10.32
					c-1.12-3.47-2.14-6.72-3.05-9.74s-1.65-5.69-2.21-8C172.33,36.45,172,34.71,171.91,33.54z"/>
			</g>
		</g>
		<g>
			<g>
				<path d="M317.91,91.17c-1.48-0.73-2.94-1.5-4.4-2.28c-1-0.53-1.99-1.09-2.98-1.65c-1.04-0.59-2.03-1.26-3.11-1.76
					c0,0-5.31-2.52-6.73-2.42c-0.08,0.01-0.18,0.05-0.27,0.07c0.05,0.06,0.09,0.15,0.15,0.19c1.15,0.81,2.3,1.63,3.47,2.42
					c2.34,1.57,4.69,3.14,7.06,4.67c1.01,0.65,2.07,1.2,3.13,1.77c1.3,0.69,2.59,1.42,3.94,1.99c2.19,0.92,4.41,1.78,6.65,2.56
					c2.55,0.89,5.22,0.96,7.83,0.52c2.94-0.5,5.16-2.47,7.43-4.25c3.03-2.38,5.38-7.06,5.38-7.06c0.8-1.71,1.24-3.62,1.65-5.48
					c0.31-1.42,0.45-2.91,0.45-4.36c0-1.84-0.15-3.69-0.37-5.52c-0.33-2.74-0.75-5.48-1.2-8.2c-0.28-1.7-0.58-3.41-1.08-5.05
					c-0.62-2.04-1.28-4.1-2.26-5.97c-0.5-0.96-1.64-1.78-2.68-2.18c-0.79-0.31-1.88,0.1-2.83,0.26c-0.25,0.04-0.6,0.28-0.67,0.5
					c-0.86,2.45-1.6,4.95-2.53,7.38c-0.54,1.4-1.24,2.77-2.08,4.01c-0.78,1.17-1.81,2.19-2.78,3.23c-0.99,1.07-2.12,1.29-2.7,0.47
					c-0.82-1.16-1.5-2.41-2.23-3.64c-0.83-1.4-1.78-2.86-3.4-3.15c-1.3-0.24-2.73,0.19-4.09,0.39c-0.43,0.06-0.98,0.24-1.2,0.55
					c-0.96,1.39-1.81,2.84-2.71,4.27c-0.62,0.99-1.24,1.97-1.86,2.95l0,0c-0.33,0.38-0.64,0.79-1,1.15
					c-0.72,0.74-1.52,1.41-2.18,2.19c-0.79,0.92-2.41,0.81-2.98-0.26c-0.74-1.39-1.59-2.73-2.26-4.16
					c-0.73-1.54-1.34-3.14-1.93-4.75c-0.33-0.9-0.54-1.85-0.79-2.78c-0.34-1.31-0.71-2.61-0.98-3.94c-0.17-0.82-0.15-1.68-0.27-2.51
					c-0.28-2.02-0.62-4.04-0.87-6.06c-0.22-1.78-0.36-3.58-0.55-5.37c-0.06-0.61-0.39-9.2-0.38-9.8c0.02-0.91-0.93-2.24-1.83-2.27
					c-0.86-0.03-1.75,0.03-2.59,0.21c-0.52,0.11-1.21,0.44-1.39,0.86c-0.67,1.51-1.04,11.07-1.54,12.64c0,0-2.35,13.69-5.87,20.82
					c-0.95,1.93-1.95,3.85-3.1,5.66c-0.74,1.16-1.73,2.18-2.73,3.14c-0.39,0.37-1.57,0.28-1.69,0.23c-1.46-0.6-2.11-2.11-2.78-3.51
					c-1.06-2.21-1.84-4.55-2.63-6.88c-0.63-1.85-1.19-3.74-1.61-5.65c-0.45-2.05-0.73-4.13-1.03-6.21
					c-0.38-2.64-0.88-5.28-1.01-7.93c-0.12-2.39,0.2-4.8,0.31-7.19c0.11-2.19,0.23-4.39,0.3-6.59c0.02-0.51,0.09-1.2-0.26-1.51
					c-1-0.87-1.8-1.12-3.46-1.09c-0.15,0-0.33,0.01-0.49,0c-1.14-0.06-2.1,0.44-2.12,1.5c-0.04,2.52-0.18,5.04-0.12,7.55
					c0,0,2.12,15.8-4.68,29.1c-0.97,1.89-2.66,3.38-4.28,4.74c-1.69,1.42-7.01,3.69-7.01,3.69c-2.14-0.25-6.05-0.84-7.54-2.5
					c-1.53-1.71-3.43-3.36-4.11-5.56c-0.86-2.79,1.67-3.93,1.86-4.2c0.5-0.69,1.24-1.2,1.75-1.89c0.55-0.75,1-1.59,1.39-2.44
					c0.22-0.48,0.44-0.95,0.64-1.44c3.37-15.7-7.7-12.81-10.38-9.45c0,0-1.85,2.41-1.89,6.38c-0.02,2.27-0.01,4.55-0.03,6.82
					c-0.01,0.79-0.12,1.47-1.26,1.19c-0.6-0.15-1.27-0.16-1.88-0.06c-0.32,0.06-0.85,0.68-0.81,0.74c0.47,0.75,0.93,1.56,1.59,2.11
					c0.91,0.75,2.13,1.16,2.97,1.97c0.84,0.81,1.34,1.96,2.05,2.91c0.52,0.7,1.15,1.33,1.73,1.98c0.69,0.78,1.33,1.61,2.1,2.3
					c0.71,0.64,1.57,1.12,2.35,1.68c0.65,0.47,1.23,1.09,1.94,1.42c1.22,0.58,2.48,1.09,3.78,1.44c1.5,0.41,3.06,0.87,4.58,0.88
					c2.52,0.01,6.01-1.33,6.01-1.33c1.04-0.45,2.02-1.04,2.97-1.67c0.7-0.46,1.36-1.02,1.95-1.63c1.07-1.12,2.09-2.28,3.1-3.46
					c0.53-0.62,1.04-1.27,1.43-1.97c0.59-1.07,1.09-2.19,1.57-3.31c0.39-0.93,0.69-1.89,1.03-2.84c0.05-0.14,0.12-0.27,0.18-0.41
					c0.14,0.1,0.35,0.18,0.41,0.32c0.33,0.8,0.6,1.62,0.94,2.42c1.08,2.6,1.9,5.36,3.36,7.72c1.36,2.21,3.17,4.17,5.74,5.34
					c1.86,0.85,3.62,0.76,5.43,0.41c2.02-0.39,3.32-1.97,4.54-3.42c1.08-1.27,1.86-2.83,2.61-4.34c0.61-1.22,1.01-2.54,1.46-3.83
					c0.7-2.01,1.47-4,2.01-6.05c0.59-2.21,0.94-4.49,1.41-6.73c0.03-0.15,0.16-0.27,0.24-0.4c0.11,0.12,0.28,0.21,0.32,0.35
					c0.46,1.82,0.86,3.65,1.34,5.46c0.37,1.4,0.79,2.79,1.28,4.15c0.44,1.24,0.99,2.44,1.53,3.64c0.61,1.34,1.1,2.78,1.94,3.97
					c1.06,1.52,2.25,3.04,3.69,4.17c1.19,0.93,2.79,1.6,4.29,1.82c1.65,0.25,3.41-0.08,4.78-1.31c0.93-0.82,1.92-1.58,2.74-2.51
					c0.69-0.78,1.17-1.74,1.7-2.65c0.86-1.48,1.66-2.98,2.51-4.46c0.13-0.23,0.38-0.41,0.62-0.55c0.05-0.03,0.29,0.2,0.4,0.35
					c1.76,2.29,3.4,4.69,6.3,5.77c1.93,0.72,3.94,0.91,5.72,0.04c1.42-0.69,2.67-1.91,3.73-3.12c0.94-1.07,1.55-2.44,2.24-3.7
					c0.54-0.98,0.99-2.01,1.48-3.01c0.04-0.09,0.14-0.17,0.23-0.2c0.06-0.02,0.2,0.05,0.22,0.11c0.35,1.2,0.79,2.38,1.01,3.6
					c0.41,2.3,0.84,4.61,0.99,6.93c0.17,2.52,0.08,5.05,0.03,7.58c-0.01,0.81-0.21,1.61-0.36,2.41c0,0-1.6,10.81-11.23,14.03
					C329.83,93.37,325.99,95.14,317.91,91.17z"/>
				<path d="M310.75,66.25c0.05,0.05,0.09,0.09,0.14,0.14c-0.02-0.07-0.03-0.14-0.05-0.2C310.81,66.21,310.78,66.23,310.75,66.25z"
					/>
				<polygon points="310.89,66.39 310.89,66.4 310.89,66.39 				"/>
				<polygon points="310.89,66.4 310.89,66.4 310.89,66.39 				"/>
			</g>
			<path class="st1" d="M234.03,48.38c0,0-0.76-1.8-2.22,2.92s1.24,2.12,1.9,0.76C234.35,50.7,234.6,48.68,234.03,48.38z"/>
		</g>
		<path d="M125.09,68.26"/>
	</g>
</g>
</svg>
